<svg xmlns="http://www.w3.org/2000/svg" width="1200" height="630" viewBox="0 0 1200 630" role="img" aria-labelledby="title desc">
  <title id="title">Verisib assisted living placement guidance in Arizona</title>
  <desc id="desc">Premium Verisib social preview graphic for free assisted living placement guidance in Phoenix and nearby Arizona cities.</desc>
  <defs>
    <linearGradient id="bg" x1="0" x2="1" y1="0" y2="1">
      <stop offset="0" stop-color="#071f1d"/>
      <stop offset=".58" stop-color="#10352f"/>
      <stop offset="1" stop-color="#061311"/>
    </linearGradient>
    <radialGradient id="glow" cx=".82" cy=".18" r=".62">
      <stop offset="0" stop-color="#75dca8" stop-opacity=".36"/>
      <stop offset=".42" stop-color="#75dca8" stop-opacity=".08"/>
      <stop offset="1" stop-color="#75dca8" stop-opacity="0"/>
    </radialGradient>
  </defs>
  <rect width="1200" height="630" fill="url(#bg)"/>
  <rect width="1200" height="630" fill="url(#glow)"/>
  <path d="M0 510C155 466 312 455 469 477c154 21 281 70 437 45 107-18 201-67 294-101v209H0Z" fill="#75dca8" opacity=".1"/>
  <g transform="translate(92 86)">
    <g fill="none" stroke="#f28b55" stroke-width="10" stroke-linecap="round">
      <path d="M24 31c32-37 82-15 68 35-13 45-64 75-64 75S-9 90 7 45c3-7 8-13 17-14Z"/>
      <path d="M113 125c-32 37-82 15-68-35 13-45 64-75 64-75s37 51 21 96c-3 7-8 13-17 14Z"/>
    </g>
    <text x="165" y="82" fill="#f4f2ea" font-family="Inter, Arial, sans-serif" font-size="58" font-weight="800" letter-spacing="-2">verisib</text>
  </g>
  <g transform="translate(92 250)">
    <text x="0" y="0" fill="#75dca8" font-family="Inter, Arial, sans-serif" font-size="24" font-weight="800" letter-spacing="4">ARIZONA SENIOR PLACEMENT</text>
    <text x="0" y="86" fill="#f4f2ea" font-family="Georgia, 'Times New Roman', serif" font-size="76" font-weight="500" letter-spacing="-3">Find assisted living</text>
    <text x="0" y="164" fill="#f4f2ea" font-family="Georgia, 'Times New Roman', serif" font-size="76" font-weight="500" letter-spacing="-3">near Phoenix.</text>
    <text x="0" y="228" fill="#a9bfb6" font-family="Inter, Arial, sans-serif" font-size="30">Free, honest guidance for families.</text>
  </g>
  <g transform="translate(845 414)">
    <rect x="0" y="0" width="252" height="78" rx="39" fill="#75dca8"/>
    <text x="126" y="50" text-anchor="middle" fill="#071f1d" font-family="Inter, Arial, sans-serif" font-size="26" font-weight="800">(623) 340-3966</text>
  </g>
</svg>
